<svg xmlns="http://www.w3.org/2000/svg" width="189.667" height="49.608" viewBox="0 0 189.667 49.608">
  <g id="Logo_kanecode" data-name="Logo kanecode" transform="translate(-88.283 -413.629)">
    <g id="Group_7410" data-name="Group 7410" transform="translate(88.68 413.629)">
      <path id="Path_10676" data-name="Path 10676" d="M871.989,451.147a2.421,2.421,0,0,0-2.423,2.442,2.383,2.383,0,0,0,.5,1.443l5.18,6.795-5.18,6.795a2.383,2.383,0,0,0-.5,1.443,2.42,2.42,0,0,0,2.423,2.442l8.141-10.68Z" transform="translate(-690.86 -442.546)" fill="#f8bf52"/>
      <path id="Path_10677" data-name="Path 10677" d="M473.764,455.6c.2-.091.406-.179.618-.251l.064-.022c.154-.051.311-.1.47-.138l.092-.021q.193-.046.389-.081l.131-.023c.149-.024.3-.042.451-.056l.145-.011c.152-.011.306-.018.46-.019h.041c.138,0,.275.005.411.013h0a6.963,6.963,0,0,1,5.185,2.8l3.59-1.077a10.629,10.629,0,0,0-6.515-5.02l-.08-.021q-.232-.059-.469-.108l-.039-.007c-.141-.029-.284-.054-.428-.077l-.118-.018c-.155-.023-.312-.044-.469-.06l-.035,0c-.147-.015-.3-.025-.445-.034l-.125-.006c-.16-.007-.322-.012-.484-.012q-.275,0-.548.014a10.621,10.621,0,0,0,0,21.211q.272.014.548.014c.162,0,.324-.005.484-.012l.125-.006c.149-.009.3-.019.445-.034l.035,0c.157-.016.314-.037.469-.06l.118-.018c.144-.023.287-.048.428-.077l.039-.007q.236-.049.469-.109l.08-.021a10.629,10.629,0,0,0,6.515-5.021l-3.59-1.077a6.962,6.962,0,0,1-5.185,2.8h0c-.136.008-.273.013-.411.013h-.041c-.154,0-.308-.008-.46-.019l-.145-.011c-.152-.014-.3-.032-.451-.056l-.131-.023q-.2-.035-.389-.08l-.092-.021c-.159-.04-.315-.087-.47-.138l-.064-.022c-.212-.072-.416-.16-.618-.251a6.985,6.985,0,0,1-3.753-4.146l-.01-.027h0c-.011-.033-.018-.067-.029-.1-.039-.124-.075-.249-.107-.376-.013-.05-.023-.1-.035-.152s-.022-.092-.031-.138h0a7.008,7.008,0,0,1-.133-.991q-.011-.17-.014-.342c0-.026,0-.052,0-.078,0-.007,0-.013,0-.02s0-.013,0-.02c0-.026,0-.052,0-.078q0-.172.014-.342a7,7,0,0,1,.133-.991h0c.009-.047.021-.092.031-.138s.022-.1.035-.152c.032-.127.068-.252.107-.376.01-.033.018-.067.029-.1h0l.01-.027A6.984,6.984,0,0,1,473.764,455.6Z" transform="translate(-379.786 -442.706)" fill="#fff"/>
      <path id="Path_10678" data-name="Path 10678" d="M569.543,450.966a10.68,10.68,0,1,0,10.679,10.68A10.68,10.68,0,0,0,569.543,450.966Zm0,17.672a6.992,6.992,0,1,1,6.992-6.992A6.992,6.992,0,0,1,569.543,468.638Z" transform="translate(-451.383 -442.407)" fill="#fff"/>
      <path id="Path_10679" data-name="Path 10679" d="M274.519,451.322a9.885,9.885,0,0,0-9.82,9.471v11.768h4.092V460.793a6.1,6.1,0,0,1,5.728-5.843c3.319,0,5.637,3.183,5.637,6.045v11.566h4.091V460.995A9.836,9.836,0,0,0,274.519,451.322Z" transform="translate(-224.654 -442.681)" fill="#fff"/>
      <path id="Path_10680" data-name="Path 10680" d="M373.118,451.322a10.619,10.619,0,1,0,9.229,15.878l-3.627-1.088a6.96,6.96,0,0,1-12.211-1.975h17.007a12.846,12.846,0,0,0,.2-2.176A10.621,10.621,0,0,0,373.118,451.322Zm-6.81,9.189a6.961,6.961,0,0,1,6.81-5.521,7.041,7.041,0,0,1,6.851,5.521Z" transform="translate(-300.019 -442.681)" fill="#fff"/>
      <path id="Path_10681" data-name="Path 10681" d="M177.173,453.941h0a10.619,10.619,0,1,0,0,16v2.619H180.8V461.949A10.613,10.613,0,0,0,177.173,453.941ZM170.2,468.934a6.972,6.972,0,1,1,6.972-6.972A6.974,6.974,0,0,1,170.2,468.934Z" transform="translate(-143.619 -442.681)" fill="#fff"/>
      <rect id="Rectangle_1505" data-name="Rectangle 1505" width="3.627" height="21.239" transform="translate(0 8.641)" fill="#fff"/>
      <path id="Path_10682" data-name="Path 10682" d="M119.788,453.489a2.421,2.421,0,0,0-2.423-2.442l-8.141,10.68,8.141,10.68a2.42,2.42,0,0,0,2.423-2.442,2.382,2.382,0,0,0-.5-1.443l-5.18-6.795,5.18-6.795A2.383,2.383,0,0,0,119.788,453.489Z" transform="translate(-104.819 -442.469)" fill="#fff"/>
      <path id="Path_10683" data-name="Path 10683" d="M680.435,424.889h0a10.619,10.619,0,1,0,0,16v2.619h3.627V413.629h-3.627Zm-6.972,14.993a6.972,6.972,0,1,1,6.972-6.972A6.974,6.974,0,0,1,673.463,439.881Z" transform="translate(-531.512 -413.629)" fill="#fff"/>
      <path id="Path_10684" data-name="Path 10684" d="M777.571,451.287a10.619,10.619,0,1,0,9.229,15.879l-3.627-1.088a6.96,6.96,0,0,1-12.211-1.974h17.007a12.867,12.867,0,0,0,.2-2.176A10.621,10.621,0,0,0,777.571,451.287Zm-6.811,9.189a6.962,6.962,0,0,1,6.811-5.522,7.042,7.042,0,0,1,6.852,5.522Z" transform="translate(-611.755 -442.654)" fill="#fff"/>
    </g>
    <g id="Group_7412" data-name="Group 7412" transform="translate(88.283 450.625)">
      <g id="Group_7411" data-name="Group 7411" transform="translate(0 0)">
        <path id="Path_10685" data-name="Path 10685" d="M88.283,577.871h.859v8.643h-.859Z" transform="translate(-88.283 -577.216)" fill="#fff"/>
        <path id="Path_10686" data-name="Path 10686" d="M115.691,588.6c0-1.5-.773-2.263-1.964-2.263-1.215,0-2.074.816-2.074,2.461v3.66h-.847V588.6c0-1.5-.785-2.263-1.976-2.263-1.227,0-2.074.816-2.074,2.461v3.66H105.9v-6.751h.859v1.162a2.391,2.391,0,0,1,2.222-1.286,2.476,2.476,0,0,1,2.479,1.657,2.442,2.442,0,0,1,2.418-1.657,2.586,2.586,0,0,1,2.664,2.918v3.957h-.847Z" transform="translate(-101.858 -583.162)" fill="#fff"/>
        <path id="Path_10687" data-name="Path 10687" d="M167.455,585.692a2.8,2.8,0,0,1,2.651,1.583v-1.484h.859v6.751h-.859v-1.5a2.829,2.829,0,0,1-2.664,1.6,3.487,3.487,0,0,1,.012-6.949Zm.159.754a2.457,2.457,0,0,0-2.492,2.708,2.5,2.5,0,1,0,2.492-2.708Z" transform="translate(-146.836 -583.244)" fill="#fff"/>
        <path id="Path_10688" data-name="Path 10688" d="M208.945,585.692a2.813,2.813,0,0,1,2.651,1.57v-1.471h.859v6.924a3.236,3.236,0,0,1-6.333.841h.847a2.294,2.294,0,0,0,2.357,1.546,2.194,2.194,0,0,0,2.271-2.387v-1.669a2.823,2.823,0,0,1-2.651,1.6,3.486,3.486,0,0,1,0-6.949Zm.16.754a2.457,2.457,0,0,0-2.492,2.708,2.5,2.5,0,1,0,2.492-2.708Z" transform="translate(-178.815 -583.244)" fill="#fff"/>
        <path id="Path_10689" data-name="Path 10689" d="M248.088,575.644a.626.626,0,1,1,1.252,0,.626.626,0,1,1-1.252,0Zm.2,1.916h.859v6.751h-.859Z" transform="translate(-211.454 -575.013)" fill="#fff"/>
        <path id="Path_10690" data-name="Path 10690" d="M271.578,588.6c0-1.5-.81-2.263-2.037-2.263-1.252,0-2.123.791-2.123,2.436v3.685h-.859v-6.751h.859v1.15a2.445,2.445,0,0,1,2.283-1.274,2.611,2.611,0,0,1,2.725,2.918v3.957h-.847Z" transform="translate(-225.69 -583.162)" fill="#fff"/>
        <path id="Path_10691" data-name="Path 10691" d="M307.376,592.641a3.48,3.48,0,0,1,0-6.949,3.024,3.024,0,0,1,3.167,3.128,5.966,5.966,0,0,1-.025.68h-5.56a2.351,2.351,0,0,0,2.418,2.411,2.076,2.076,0,0,0,2.16-1.509h.908A2.949,2.949,0,0,1,307.376,592.641Zm-2.418-3.846h4.713a2.2,2.2,0,0,0-2.332-2.362A2.322,2.322,0,0,0,304.958,588.8Z" transform="translate(-254.616 -583.244)" fill="#fff"/>
        <path id="Path_10692" data-name="Path 10692" d="M374.271,588.6c0-1.5-.773-2.263-1.964-2.263-1.215,0-2.074.816-2.074,2.461v3.66h-.847V588.6c0-1.5-.786-2.263-1.976-2.263-1.227,0-2.074.816-2.074,2.461v3.66h-.859v-6.751h.859v1.162a2.391,2.391,0,0,1,2.222-1.286,2.476,2.476,0,0,1,2.479,1.657,2.442,2.442,0,0,1,2.418-1.657,2.586,2.586,0,0,1,2.664,2.918v3.957h-.847Z" transform="translate(-301.161 -583.162)" fill="#fff"/>
        <path id="Path_10693" data-name="Path 10693" d="M426.156,592.641a3.477,3.477,0,1,1,3.375-3.475A3.28,3.28,0,0,1,426.156,592.641Zm0-.754a2.734,2.734,0,1,0-2.455-2.72A2.439,2.439,0,0,0,426.156,591.887Z" transform="translate(-346.138 -583.244)" fill="#fff"/>
        <path id="Path_10694" data-name="Path 10694" d="M465.127,592.46h-.859v-6.751h.859v1.2a2.306,2.306,0,0,1,2.3-1.323v.9h-.233c-1.117,0-2.062.507-2.062,2.2Z" transform="translate(-378.077 -583.162)" fill="#fff"/>
        <path id="Path_10695" data-name="Path 10695" d="M490.577,592.641a3.48,3.48,0,0,1,0-6.949,3.024,3.024,0,0,1,3.167,3.128,5.966,5.966,0,0,1-.025.68h-5.56a2.352,2.352,0,0,0,2.418,2.411,2.076,2.076,0,0,0,2.16-1.509h.908A2.949,2.949,0,0,1,490.577,592.641Zm-2.418-3.846h4.713a2.2,2.2,0,0,0-2.332-2.362A2.322,2.322,0,0,0,488.159,588.8Z" transform="translate(-395.82 -583.244)" fill="#fff"/>
        <path id="Path_10696" data-name="Path 10696" d="M523.851,609.318h.958l-1.264,3.24h-.6Z" transform="translate(-423.301 -601.454)" fill="#fff"/>
        <path id="Path_10697" data-name="Path 10697" d="M563.832,585.692a2.9,2.9,0,0,1,3.081,2.3h-.921a2.043,2.043,0,0,0-2.16-1.558c-1.313,0-2.381.9-2.381,2.733s1.068,2.745,2.381,2.745a2.038,2.038,0,0,0,2.16-1.57h.921a2.94,2.94,0,0,1-3.081,2.3,3.482,3.482,0,0,1,0-6.949Z" transform="translate(-452.309 -583.244)" fill="#fff"/>
        <path id="Path_10698" data-name="Path 10698" d="M602.076,592.641a3.477,3.477,0,1,1,3.375-3.475A3.28,3.28,0,0,1,602.076,592.641Zm0-.754a2.734,2.734,0,1,0-2.455-2.72A2.439,2.439,0,0,0,602.076,591.887Z" transform="translate(-481.73 -583.244)" fill="#fff"/>
        <path id="Path_10699" data-name="Path 10699" d="M641.691,577.96a2.911,2.911,0,0,1,2.639,1.558V575.66h.859v9.15h-.859V583.3a2.794,2.794,0,0,1-2.651,1.608,3.486,3.486,0,0,1,.012-6.949Zm.147.754a2.457,2.457,0,0,0-2.492,2.708,2.5,2.5,0,1,0,2.492-2.708Z" transform="translate(-512.348 -575.512)" fill="#fff"/>
        <path id="Path_10700" data-name="Path 10700" d="M683.254,592.641a3.48,3.48,0,0,1,0-6.949,3.024,3.024,0,0,1,3.167,3.128,5.981,5.981,0,0,1-.024.68h-5.56a2.351,2.351,0,0,0,2.418,2.411,2.076,2.076,0,0,0,2.16-1.509h.908A2.949,2.949,0,0,1,683.254,592.641Zm-2.418-3.846h4.713a2.2,2.2,0,0,0-2.332-2.362A2.321,2.321,0,0,0,680.837,588.8Z" transform="translate(-544.327 -583.244)" fill="#fff"/>
        <path id="Path_10701" data-name="Path 10701" d="M740.353,575.66h.859v9.15h-.859Z" transform="translate(-590.872 -575.512)" fill="#fff"/>
        <path id="Path_10702" data-name="Path 10702" d="M759.543,592.641a3.48,3.48,0,0,1,0-6.949,3.024,3.024,0,0,1,3.167,3.128,6.025,6.025,0,0,1-.024.68h-5.56a2.351,2.351,0,0,0,2.418,2.411,2.075,2.075,0,0,0,2.16-1.509h.908A2.949,2.949,0,0,1,759.543,592.641Zm-2.418-3.846h4.713a2.2,2.2,0,0,0-2.332-2.362A2.321,2.321,0,0,0,757.125,588.8Z" transform="translate(-603.127 -583.244)" fill="#fff"/>
        <path id="Path_10703" data-name="Path 10703" d="M797.607,592.641c-1.522,0-2.59-.767-2.7-2h.884c.074.742.712,1.273,1.8,1.273.958,0,1.5-.519,1.5-1.162,0-1.669-4.026-.693-4.026-3.227,0-1,.945-1.83,2.357-1.83a2.182,2.182,0,0,1,2.455,2.065h-.859a1.434,1.434,0,0,0-1.62-1.323c-.9,0-1.461.482-1.461,1.076,0,1.83,3.965.853,4,3.24C799.938,591.838,798.993,592.641,797.607,592.641Z" transform="translate(-632.919 -583.244)" fill="#fff"/>
        <path id="Path_10704" data-name="Path 10704" d="M830.264,592.641c-1.522,0-2.59-.767-2.7-2h.884c.074.742.712,1.273,1.8,1.273.958,0,1.5-.519,1.5-1.162,0-1.669-4.026-.693-4.026-3.227,0-1,.945-1.83,2.357-1.83a2.182,2.182,0,0,1,2.455,2.065h-.859a1.434,1.434,0,0,0-1.62-1.323c-.9,0-1.461.482-1.461,1.076,0,1.83,3.964.853,4,3.24C832.6,591.838,831.651,592.641,830.264,592.641Z" transform="translate(-658.09 -583.244)" fill="#fff"/>
      </g>
    </g>
  </g>
</svg>
